<?xml version="1.0" encoding="UTF-8"?>
<svg id="Layer_2" data-name="Layer 2" xmlns="http://www.w3.org/2000/svg" viewBox="0 0 15.35 15.34">
  <defs>
    <style>
      .cls-1 {
        fill: #fff;
        fill-rule: evenodd;
        stroke-width: 0px;
      }
    </style>
  </defs>
  <g id="Layer_1-2" data-name="Layer 1">
    <path class="cls-1" d="M1.28,0C.57,0,0,.57,0,1.28v12.79c0,.71.57,1.28,1.28,1.28h12.8c.71,0,1.28-.57,1.28-1.28V1.28c0-.71-.57-1.28-1.28-1.28H1.28ZM4.71,3.41c0,.82-.61,1.32-1.33,1.31-.68,0-1.28-.55-1.27-1.31,0-.72.57-1.3,1.31-1.28.75.02,1.3.57,1.29,1.28ZM7.92,5.76h-2.15v7.3h2.27v-.17c0-.32,0-.65,0-.97,0-.86,0-1.73,0-2.59,0-.21.01-.43.06-.63.2-.75.88-1.23,1.63-1.11.48.08.8.35.94.81.08.28.12.59.12.89,0,.89,0,1.79,0,2.68,0,.32,0,.63,0,.95v.15h2.28v-.18c0-.39,0-.77,0-1.16,0-.96,0-1.93,0-2.89,0-.44-.05-.86-.15-1.28-.16-.63-.49-1.14-1.03-1.52-.38-.27-.8-.44-1.26-.46-.05,0-.11,0-.16,0-.24-.01-.48-.03-.71.02-.65.13-1.23.43-1.66.96-.05.06-.1.12-.17.21l-.02.02v-1.02ZM2.29,13.06h2.26v-7.29h-2.26v7.29Z"/>
  </g>
</svg>