<?xml version="1.0" encoding="UTF-8"?>
<svg id="Layer_2" data-name="Layer 2" xmlns="http://www.w3.org/2000/svg" viewBox="0 0 15.85 15.18">
  <defs>
    <style>
      .cls-1 {
        fill: #fff;
        fill-rule: evenodd;
        stroke-width: 0px;
      }
    </style>
  </defs>
  <g id="Layer_1-2" data-name="Layer 1">
    <path class="cls-1" d="M11.45,0h-7.04C1.97,0,0,1.89,0,4.22v6.75c0,2.33,1.97,4.22,4.4,4.22h7.04c2.43,0,4.4-1.89,4.4-4.22v-6.75c0-2.33-1.97-4.22-4.4-4.22ZM14.31,10.96c0,1.51-1.28,2.74-2.86,2.74h-7.04c-1.58,0-2.86-1.23-2.86-2.74v-6.75c0-1.51,1.28-2.74,2.86-2.74h7.04c1.58,0,2.86,1.23,2.86,2.74v6.75ZM12.11,4.43c.49,0,.88-.38.88-.84s-.39-.84-.88-.84-.88.38-.88.84.39.84.88.84ZM7.92,3.79c-2.19,0-3.96,1.7-3.96,3.79s1.77,3.79,3.96,3.79,3.96-1.7,3.96-3.79c0-1.01-.41-1.97-1.16-2.69-.74-.71-1.75-1.11-2.8-1.11ZM5.5,7.59c0,1.28,1.08,2.32,2.42,2.32s2.42-1.04,2.42-2.32-1.08-2.32-2.42-2.32-2.42,1.04-2.42,2.32Z"/>
  </g>
</svg>