<?xml version="1.0" encoding="UTF-8"?>
<svg id="Layer_2" data-name="Layer 2" xmlns="http://www.w3.org/2000/svg" viewBox="0 0 17.73 19.07">
  <defs>
    <style>
      .cls-1 {
        fill: #d0001a;
        stroke: #d0001a;
        stroke-width: 2px;
      }
    </style>
  </defs>
  <g id="Layer_1-2" data-name="Layer 1">
    <path class="cls-1" d="M1,6.9c0-2.78,0-4.17.86-5.03.86-.86,2.25-.86,5.03-.86h3.93c2.78,0,4.17,0,5.04.86.86.86.86,2.25.86,5.03v6.71c0,2.64,0,3.96-.83,4.36-.83.4-1.87-.41-3.94-2.04l-.66-.52c-1.17-.92-1.75-1.37-2.43-1.37s-1.26.46-2.43,1.37l-.66.52c-2.08,1.63-3.11,2.44-3.94,2.04-.83-.4-.83-1.72-.83-4.36v-6.71Z"/>
  </g>
</svg>