<?xml version="1.0" encoding="UTF-8"?>
<svg id="Layer_2" data-name="Layer 2" xmlns="http://www.w3.org/2000/svg" viewBox="0 0 15.33 16.47">
  <defs>
    <style>
      .cls-1 {
        fill: none;
        stroke: #858585;
        stroke-width: 2px;
      }
    </style>
  </defs>
  <g id="Layer_1-2" data-name="Layer 1">
    <path class="cls-1" d="M1,6c0-2.36,0-3.54.73-4.27.73-.73,1.91-.73,4.27-.73h3.33c2.36,0,3.54,0,4.27.73.73.73.73,1.91.73,4.27v5.69c0,2.24,0,3.35-.7,3.7-.7.34-1.58-.35-3.34-1.73l-.56-.44c-.99-.78-1.48-1.17-2.06-1.17s-1.07.39-2.06,1.17l-.56.44c-1.76,1.38-2.64,2.07-3.34,1.73-.7-.34-.7-1.46-.7-3.7v-5.69Z"/>
  </g>
</svg>