<?xml version="1.0" encoding="UTF-8"?>
<svg id="Layer_2" data-name="Layer 2" xmlns="http://www.w3.org/2000/svg" viewBox="0 0 18 20">
  <defs>
    <style>
      .cls-1 {
        stroke-linecap: round;
      }

      .cls-1, .cls-2 {
        fill: none;
        stroke: #fff;
        stroke-width: 2px;
      }
    </style>
  </defs>
  <g id="Layer_1-2" data-name="Layer 1">
    <path class="cls-1" d="M5,6v-1c0-2.21,1.79-4,4-4h0c2.21,0,4,1.79,4,4v1"/>
    <path class="cls-1" d="M12,12v-2"/>
    <path class="cls-1" d="M6,12v-2"/>
    <path class="cls-2" d="M1,10c0-1.89,0-2.83.59-3.41.59-.59,1.53-.59,3.41-.59h8c1.89,0,2.83,0,3.41.59.59.59.59,1.53.59,3.41v1c0,3.77,0,5.66-1.17,6.83-1.17,1.17-3.06,1.17-6.83,1.17h0c-3.77,0-5.66,0-6.83-1.17-1.17-1.17-1.17-3.06-1.17-6.83v-1Z"/>
  </g>
</svg>