<?xml version="1.0" encoding="UTF-8"?>
<svg id="Layer_2" data-name="Layer 2" xmlns="http://www.w3.org/2000/svg" viewBox="0 0 15.72 15.72">
  <defs>
    <style>
      .cls-1 {
        fill: #d0001a;
        stroke-width: 0px;
      }
    </style>
  </defs>
  <g id="Layer_1-2" data-name="Layer 1">
    <path class="cls-1" d="M1.45,5.49c-.29,0-.53.24-.53.53s.24.53.53.53v-1.07ZM14.27,6.56c.3,0,.53-.24.53-.53s-.24-.53-.53-.53v1.07ZM1.53,9.61c-.29,0-.53.24-.53.53s.24.53.53.53v-1.07ZM14.35,10.68c.29,0,.53-.24.53-.53s-.24-.53-.53-.53v1.07ZM14.65,7.86c0,3.75-3.04,6.79-6.79,6.79v1.07c4.34,0,7.86-3.52,7.86-7.86h-1.07ZM7.86,14.65c-3.75,0-6.79-3.04-6.79-6.79H0c0,4.34,3.52,7.86,7.86,7.86v-1.07ZM1.07,7.86C1.07,4.11,4.11,1.07,7.86,1.07V0C3.52,0,0,3.52,0,7.86h1.07ZM7.86,1.07c3.75,0,6.79,3.04,6.79,6.79h1.07C15.72,3.52,12.2,0,7.86,0v1.07ZM7.86,14.65c-.27,0-.56-.12-.88-.43-.32-.31-.63-.78-.9-1.4-.54-1.24-.89-3-.89-4.97h-1.07c0,2.08.37,3.99.98,5.39.31.7.69,1.31,1.14,1.74.45.44,1,.73,1.62.73v-1.07ZM5.19,7.86c0-1.97.35-3.72.89-4.97.27-.62.58-1.09.9-1.4.31-.3.61-.43.88-.43V0c-.62,0-1.17.29-1.62.73-.45.43-.83,1.04-1.14,1.74-.62,1.41-.98,3.31-.98,5.39h1.07ZM7.86,15.72c.62,0,1.17-.29,1.62-.73.45-.43.83-1.04,1.14-1.74.62-1.41.98-3.31.98-5.39h-1.07c0,1.97-.35,3.72-.89,4.97-.27.62-.58,1.09-.9,1.4-.32.3-.61.43-.88.43v1.07ZM11.6,7.86c0-2.08-.37-3.99-.98-5.39-.31-.7-.69-1.31-1.14-1.74-.45-.44-1-.73-1.62-.73v1.07c.27,0,.56.12.88.43.32.31.63.78.9,1.4.54,1.24.89,3,.89,4.97h1.07ZM1.45,6.56h12.82v-1.07H1.45v1.07ZM1.53,10.68h12.82v-1.07H1.53v1.07Z"/>
  </g>
</svg>