<?xml version="1.0" encoding="UTF-8"?>
<svg id="Layer_2" data-name="Layer 2" xmlns="http://www.w3.org/2000/svg" viewBox="0 0 17.07 11.94">
  <defs>
    <style>
      .cls-1 {
        fill: #fff;
        stroke-width: 0px;
      }
    </style>
  </defs>
  <g id="Layer_1-2" data-name="Layer 1">
    <path class="cls-1" d="M16.72,1.88c-.1-.36-.29-.69-.55-.95-.26-.26-.59-.45-.95-.55C13.89,0,8.54,0,8.54,0,8.54,0,3.2,0,1.86.34c-.36.1-.69.3-.95.56-.26.27-.45.59-.56.95C0,3.19,0,5.96,0,5.96,0,5.96,0,8.75.35,10.07c.2.73.77,1.31,1.5,1.5,1.35.37,6.68.37,6.68.37,0,0,5.34,0,6.68-.34.36-.1.69-.29.95-.55.26-.26.46-.59.55-.95.35-1.33.36-4.1.36-4.1,0,0,.02-2.78-.35-4.12ZM6.83,8.53V3.41s4.45,2.56,4.45,2.56l-4.45,2.55Z"/>
  </g>
</svg>