<?xml version="1.0" encoding="UTF-8"?>
<svg id="Layer_2" data-name="Layer 2" xmlns="http://www.w3.org/2000/svg" xmlns:xlink="http://www.w3.org/1999/xlink" viewBox="0 0 279.16 43.06">
  <defs>
    <style>
      .cls-1 {
        fill: none;
      }

      .cls-1, .cls-2 {
        stroke-width: 0px;
      }

      .cls-3 {
        clip-path: url(#clippath);
      }

      .cls-2 {
        fill: #fff;
      }
    </style>
    <clipPath id="clippath">
      <rect class="cls-1" width="279.16" height="43.06"/>
    </clipPath>
  </defs>
  <g id="Layer_1-2" data-name="Layer 1">
    <g class="cls-3">
      <g>
        <path class="cls-2" d="M119.69,11.14h-.93c.19-.89.28-1.74.28-2.54,0-1.88-.58-3.34-1.75-4.38-1.17-1.05-2.8-1.57-4.89-1.57-1.44,0-2.64.36-3.58,1.08-.94.72-1.41,1.85-1.41,3.39,0,1.35.39,2.65,1.17,3.9.79,1.24,1.99,2.82,3.62,4.73,1.2,1.39,2.16,2.56,2.89,3.53.72.97,1.34,2.03,1.84,3.18.5,1.15.76,2.35.76,3.58,0,2.09-.72,3.84-2.15,5.24-1.43,1.4-3.18,2.43-5.26,3.09-2.08.66-4.08.99-6.02.99-2.25,0-3.94-.15-5.1-.46-1.15-.31-2.44-.86-3.85-1.66-.8-.46-1.32-.69-1.57-.69-.4,0-.72.16-.97.48-.24.32-.58.99-1.01,2.01h-.92c.49-1.17.98-2.58,1.46-4.22.48-1.65,1.04-3.93,1.68-6.85h.92c-.28.77-.41,1.83-.41,3.18,0,2.37.65,4.15,1.96,5.35,1.31,1.2,3.16,1.8,5.56,1.8,2,0,3.4-.38,4.2-1.13.8-.75,1.2-1.79,1.2-3.11,0-1.75-.39-3.35-1.17-4.8-.79-1.44-1.96-3.13-3.53-5.07-1.51-1.88-2.64-3.51-3.42-4.89-.77-1.39-1.15-2.89-1.15-4.52,0-2.03.62-3.75,1.87-5.17,1.24-1.41,2.8-2.47,4.66-3.16,1.86-.69,3.73-1.04,5.6-1.04,1.32,0,2.51.12,3.55.37,1.05.24,1.81.47,2.28.67.48.2,1.25.56,2.33,1.08.15.06.41.19.76.37.35.19.61.28.76.28.24,0,.48-.19.72-.58.23-.38.5-1,.81-1.87h.93c-1.17,2.95-2.08,6.09-2.72,9.41h0Z"/>
        <path class="cls-2" d="M129.47,30.79c-.09.31-.14.6-.14.88,0,.71.32,1.06.97,1.06s1.23-.33,1.84-.99c.62-.66,1.1-1.5,1.48-2.51l.74-1.98h.88l-.88,2.54c-.62,1.78-1.55,3.16-2.81,4.13-1.26.97-2.77,1.46-4.52,1.46s-3.01-.45-3.85-1.34c-.84-.89-1.27-2.1-1.27-3.64,0-.8.15-1.78.46-2.95l4.52-15.73h-4.2l.23-.92h4.24l1.94-6.78c3.23-.03,6.03-.24,8.39-.65l-2.17,7.43h4.61l-.14.92h-4.75l-5.58,19.1h0Z"/>
        <path class="cls-2" d="M161.43,27.24h.88l-1.15,3.37c-1.1,3.17-3.3,4.75-6.6,4.75-1.88,0-3.21-.54-4.02-1.61-.53-.77-.79-1.71-.79-2.82,0-.34.02-.6.05-.79-.74,1.88-1.69,3.21-2.86,4.02-1.17.8-2.56,1.2-4.15,1.2-1.91,0-3.34-.49-4.29-1.48-.96-.98-1.43-2.41-1.43-4.29,0-2.89.77-5.86,2.33-8.9,1.55-3.04,3.49-5.57,5.81-7.56,2.32-2,4.54-3,6.67-3,1.75,0,2.7.88,2.86,2.63l.6-1.94c2.98-.03,5.76-.26,8.35-.69l-6.23,20.66c-.12.4-.19.77-.19,1.1,0,.55.24.83.74.83.89,0,1.71-.97,2.44-2.91l.97-2.58h0ZM148.75,30.74c.65-.98,1.39-2.75,2.21-5.31l3.32-11.07c.03-.15.05-.38.05-.69,0-.86-.29-1.29-.88-1.29-.86,0-1.91.89-3.16,2.68-1.24,1.78-2.32,4.03-3.21,6.74-.89,2.7-1.34,5.37-1.34,7.98,0,.89.07,1.52.23,1.89.15.37.43.55.83.55.65,0,1.29-.49,1.94-1.48h0Z"/>
        <path class="cls-2" d="M202.35,27.24h.88l-1.15,3.37c-1.1,3.17-3.3,4.75-6.6,4.75-2.06,0-3.49-.65-4.29-1.94-.4-.71-.6-1.51-.6-2.4,0-1.01.23-2.22.69-3.6l3.97-11.95c.21-.62.32-1.1.32-1.48s-.12-.55-.37-.55c-.96,0-2.15,1.15-3.6,3.46-1.45,2.31-2.99,6.06-4.61,11.26l-1.89,6.55h-8.21l5.54-19.24c.06-.19.14-.45.23-.79s.14-.6.14-.79c0-.31-.15-.46-.46-.46-1.1,0-2.35,1.25-3.71,3.76-1.37,2.51-2.79,6.02-4.27,10.54l-1.8,6.96h-8.16l5.62-20.02c.12-.46.19-.84.19-1.15,0-.28-.05-.48-.16-.6s-.29-.19-.53-.19c-.89,0-1.71.97-2.44,2.91l-1.06,2.82h-.88l1.29-3.6c.58-1.63,1.46-2.83,2.63-3.6,1.17-.77,2.51-1.15,4.02-1.15,1.6,0,2.75.38,3.46,1.15.71.77,1.06,1.78,1.06,3.04,0,.58-.11,1.34-.32,2.26l-.55,2.08c1.32-3.01,2.77-5.19,4.34-6.53,1.57-1.34,3.44-2.01,5.63-2.01,2.7,0,4.06,1.23,4.06,3.69,0,.92-.19,2.01-.55,3.28l-.23.88c1.35-2.95,2.79-5,4.31-6.14,1.52-1.14,3.25-1.71,5.19-1.71,2.77,0,4.15,1.22,4.15,3.64,0,.92-.22,2.03-.65,3.32l-4.57,13.7c-.15.52-.23.89-.23,1.1,0,.55.26.83.79.83.89,0,1.71-.97,2.44-2.91l.97-2.58h0Z"/>
        <path class="cls-2" d="M230.35,12.06c1.05,1.29,1.57,3.16,1.57,5.58s-.57,5.17-1.71,7.94c-1.14,2.77-2.77,5.09-4.89,6.96-2.12,1.88-4.58,2.82-7.38,2.82-.83,0-1.63-.08-2.4-.25-.77-.17-1.43-.39-1.98-.67l-.97,3.37c-.25.89-.37,1.57-.37,2.03,0,.86.3,1.44.9,1.75.6.31,1.58.48,2.93.5l-.28.97-1.24-.05c-3.51-.09-5.76-.14-6.78-.14s-3.18.05-6.41.14c-.28.03-.62.05-1.01.05l.28-.97c1.11,0,1.91-.2,2.4-.6.49-.4.89-1.15,1.2-2.26l8.21-29.62c-.8,1.88-1.73,3.57-2.79,5.07-1.06,1.51-2.33,3.06-3.8,4.66l-.51-.6c1.32-1.48,2.41-2.78,3.25-3.92.84-1.14,1.71-2.53,2.61-4.18.89-1.65,1.77-3.65,2.63-6.02,2.95-.24,5.83-.83,8.63-1.75l-3.51,12.46c.93-1.78,1.93-3.1,3.02-3.95,1.09-.84,2.32-1.27,3.66-1.27,2.12,0,3.71.65,4.75,1.94h-.01ZM218.89,31.22c1.31-1.74,2.38-3.93,3.21-6.57.83-2.65,1.24-5.21,1.24-7.7,0-1.51-.09-2.51-.28-3-.18-.49-.46-.74-.83-.74-.68,0-1.39.52-2.15,1.55-.75,1.03-1.48,2.42-2.19,4.18l-4.15,14.71c.49.12.89.19,1.2.19,1.32,0,2.63-.87,3.95-2.61h0Z"/>
        <path class="cls-2" d="M251.96,20.94c-2.87,1.92-6.29,3.35-10.26,4.27-.09.83-.14,1.61-.14,2.35,0,1.69.32,2.86.97,3.51.65.65,1.6.97,2.86.97.77,0,1.76-.26,2.98-.79,1.22-.52,2.37-1.34,3.48-2.44l.74.37c-1.17,1.75-2.75,3.22-4.75,4.4-2,1.18-4.31,1.77-6.92,1.77-2.27,0-4.17-.57-5.69-1.71-1.52-1.14-2.28-2.74-2.28-4.8,0-3.01.78-5.98,2.33-8.88,1.55-2.91,3.68-5.27,6.36-7.1,2.69-1.83,5.67-2.75,8.93-2.75,1.72,0,3.11.35,4.15,1.04,1.05.69,1.57,1.7,1.57,3.02,0,2.58-1.44,4.83-4.31,6.76h0ZM246.66,12.98c-1.06,1.32-2.04,3.03-2.93,5.12-.89,2.09-1.52,4.18-1.89,6.27,1.63-.95,3.04-2,4.24-3.14,1.29-1.26,2.32-2.66,3.07-4.2.75-1.54,1.13-3.17,1.13-4.89,0-.77-.24-1.15-.74-1.15-.86,0-1.82.66-2.88,1.98h0Z"/>
        <path class="cls-2" d="M274.84,20.94c-2.87,1.92-6.29,3.35-10.26,4.27-.09.83-.14,1.61-.14,2.35,0,1.69.32,2.86.97,3.51.65.65,1.6.97,2.86.97.77,0,1.76-.26,2.98-.79,1.22-.52,2.37-1.34,3.48-2.44l.74.37c-1.17,1.75-2.75,3.22-4.75,4.4-2,1.18-4.31,1.77-6.92,1.77-2.27,0-4.18-.57-5.69-1.71-1.52-1.14-2.29-2.74-2.29-4.8,0-3.01.78-5.98,2.33-8.88,1.55-2.91,3.68-5.27,6.36-7.1,2.69-1.83,5.67-2.75,8.93-2.75,1.72,0,3.11.35,4.15,1.04,1.05.69,1.57,1.7,1.57,3.02,0,2.58-1.44,4.83-4.31,6.76h0ZM269.54,12.98c-1.06,1.32-2.04,3.03-2.93,5.12-.89,2.09-1.52,4.18-1.89,6.27,1.63-.95,3.04-2,4.24-3.14,1.29-1.26,2.32-2.66,3.07-4.2.76-1.54,1.13-3.17,1.13-4.89,0-.77-.24-1.15-.74-1.15-.86,0-1.82.66-2.88,1.98h0Z"/>
        <path class="cls-2" d="M65.58,0c-11.5,0-20.83,9.32-20.83,20.83s9.32,20.83,20.83,20.83,20.83-9.32,20.83-20.83S77.08,0,65.58,0ZM65.58,39.08c-10.08,0-18.25-8.17-18.25-18.25S55.51,2.58,65.58,2.58s18.25,8.17,18.25,18.25-8.17,18.25-18.25,18.25Z"/>
        <path class="cls-2" d="M65.58,3.59c-9.52,0-17.24,7.72-17.24,17.24s7.72,17.24,17.24,17.24,17.24-7.72,17.24-17.24-7.72-17.24-17.24-17.24ZM65.58,37.08c-8.98,0-16.25-7.28-16.25-16.25s7.28-16.25,16.25-16.25,16.25,7.28,16.25,16.25-7.28,16.25-16.25,16.25Z"/>
        <path class="cls-2" d="M36.44,16.65c-4.6,0-7.04-1.42-9.39-2.8-2.22-1.29-4.3-2.51-8.21-2.51s-6.52,1.25-9.14,2.58c-2.5,1.27-5.09,2.59-9.04,2.59-.37,0-.66-.3-.66-.66s.3-.66.66-.66c3.63,0,5.97-1.19,8.44-2.44,2.63-1.34,5.36-2.73,9.73-2.73s6.61,1.37,8.88,2.69c2.31,1.34,4.48,2.62,8.73,2.62s6.25-1.23,8.48-2.52c2.35-1.37,4.78-2.78,9.55-2.78.37,0,.66.3.66.66s-.3.66-.66.66c-4.41,0-6.58,1.26-8.88,2.6-2.28,1.33-4.64,2.7-9.14,2.7Z"/>
        <path class="cls-2" d="M36.44,21.3c-4.6,0-7.04-1.42-9.39-2.8-2.22-1.29-4.3-2.51-8.21-2.51s-6.52,1.25-9.14,2.58c-2.5,1.27-5.09,2.59-9.04,2.59-.37,0-.66-.3-.66-.66s.3-.66.66-.66c3.63,0,5.97-1.19,8.44-2.44,2.63-1.34,5.36-2.73,9.73-2.73s6.61,1.37,8.88,2.69c2.31,1.34,4.48,2.62,8.73,2.62s6.25-1.23,8.48-2.52c2.35-1.37,4.78-2.78,9.55-2.78.37,0,.66.3.66.66s-.3.66-.66.66c-4.41,0-6.58,1.26-8.88,2.6-2.28,1.33-4.64,2.7-9.14,2.7Z"/>
        <path class="cls-2" d="M36.44,25.94c-4.6,0-7.04-1.42-9.39-2.8-2.22-1.29-4.3-2.51-8.21-2.51s-6.52,1.25-9.14,2.58c-2.5,1.27-5.09,2.59-9.04,2.59-.37,0-.66-.3-.66-.66s.3-.66.66-.66c3.63,0,5.97-1.19,8.44-2.44,2.63-1.34,5.36-2.73,9.73-2.73s6.61,1.37,8.88,2.69c2.31,1.34,4.48,2.62,8.73,2.62s6.25-1.23,8.48-2.52c2.35-1.37,4.78-2.78,9.55-2.78.37,0,.66.3.66.66s-.3.66-.66.66c-4.41,0-6.58,1.26-8.88,2.6-2.28,1.33-4.64,2.7-9.14,2.7Z"/>
        <path class="cls-2" d="M36.44,30.59c-4.6,0-7.04-1.42-9.39-2.8-2.22-1.29-4.3-2.51-8.21-2.51s-6.52,1.25-9.14,2.58c-2.5,1.27-5.09,2.59-9.04,2.59-.37,0-.66-.3-.66-.66s.3-.66.66-.66c3.63,0,5.97-1.19,8.44-2.44,2.63-1.34,5.36-2.73,9.73-2.73s6.61,1.37,8.88,2.69c2.31,1.34,4.48,2.62,8.73,2.62s6.25-1.23,8.48-2.52c2.35-1.37,4.78-2.78,9.55-2.78.37,0,.66.3.66.66s-.3.66-.66.66c-4.41,0-6.58,1.26-8.88,2.6-2.28,1.33-4.64,2.7-9.14,2.7Z"/>
        <path class="cls-2" d="M36.44,35.23c-4.6,0-7.04-1.42-9.39-2.8-2.22-1.29-4.3-2.51-8.21-2.51s-6.52,1.25-9.14,2.58c-2.5,1.27-5.09,2.59-9.04,2.59-.37,0-.66-.3-.66-.66s.3-.66.66-.66c3.63,0,5.97-1.19,8.44-2.44,2.63-1.34,5.36-2.73,9.73-2.73s6.61,1.37,8.88,2.69c2.31,1.34,4.48,2.62,8.73,2.62s6.25-1.23,8.48-2.52c2.35-1.37,4.78-2.78,9.55-2.78.37,0,.66.3.66.66s-.3.66-.66.66c-4.41,0-6.58,1.26-8.88,2.6-2.28,1.33-4.64,2.7-9.14,2.7Z"/>
        <path class="cls-2" d="M73.3,16.55h-.55c.11-.53.16-1.03.16-1.5,0-1.11-.35-1.97-1.04-2.59-.69-.62-1.66-.93-2.89-.93-.86,0-1.56.21-2.11.64-.55.42-.83,1.09-.83,2,0,.8.23,1.57.7,2.31.46.74,1.18,1.67,2.14,2.79.71.82,1.27,1.51,1.71,2.09.42.57.79,1.2,1.09,1.88s.45,1.39.45,2.11c0,1.24-.42,2.27-1.27,3.1-.84.83-1.88,1.43-3.11,1.83-1.23.39-2.41.58-3.56.58-1.33,0-2.33-.09-3.01-.27-.68-.18-1.44-.51-2.28-.98-.47-.27-.78-.41-.93-.41-.24,0-.42.1-.57.29-.14.19-.35.58-.6,1.18h-.55c.29-.69.58-1.52.86-2.5.28-.97.62-2.32.99-4.05h.55c-.16.46-.24,1.08-.24,1.88,0,1.4.39,2.45,1.16,3.17.77.71,1.87,1.06,3.29,1.06,1.18,0,2.01-.22,2.48-.67s.71-1.06.71-1.84c0-1.04-.23-1.98-.7-2.84-.46-.86-1.16-1.85-2.09-3-.89-1.11-1.56-2.07-2.02-2.89-.46-.82-.68-1.71-.68-2.67,0-1.2.37-2.22,1.1-3.05.74-.83,1.65-1.46,2.76-1.87,1.1-.41,2.2-.62,3.31-.62.78,0,1.48.07,2.1.22.62.14,1.07.28,1.35.39.28.12.74.33,1.38.64.09.04.24.11.45.22.21.11.36.16.45.16.14,0,.29-.11.42-.34.14-.23.3-.59.48-1.1h.55c-.69,1.75-1.23,3.6-1.61,5.56h0Z"/>
      </g>
    </g>
  </g>
</svg>